<svg xmlns="http://www.w3.org/2000/svg" viewBox="0 0 128 128">
  <path fill="#283593" d="M64 8 13.8 36.5v55L64 120l50.2-28.5v-55z"/>
  <path fill="#5c6bc0" d="M64 19.8 24.3 42.4v43.2L64 108.2l39.7-22.6V42.4z"/>
  <path fill="#fff" d="M65.1 91.4c-8.9 0-16-2.7-21.1-8.1-5.1-5.4-7.7-12.1-7.7-20.3 0-8.3 2.6-15.1 7.8-20.5 5.2-5.4 12.2-8.1 21.1-8.1 10.6 0 18.8 4.3 24.5 12.9L78 54.2c-2.8-4.7-7.1-7-12.8-7-4.6 0-8.2 1.5-10.9 4.5-2.7 3-4.1 6.8-4.1 11.3 0 4.6 1.4 8.4 4.1 11.3 2.7 3 6.4 4.4 10.9 4.4 5.6 0 9.9-2.4 12.8-7.1l11.8 6.8c-5.8 8.7-14 13-24.7 13z"/>
</svg>
