<svg width="256" height="256" viewBox="0 0 256 256" fill="none" xmlns="http://www.w3.org/2000/svg">
  <rect width="256" height="256" rx="48" fill="#0D1B2A"/>
  <path d="M179.4 63.7c-10.3-8.8-25.1-12-37.8-12.2-31.1-.5-54.6 14.5-64.2 38.7-7 17.7-5.2 42.6 9.1 58.3 6.4 7 14.9 11.8 24 13.2l-4.4 27.7c-.4 2.6 1.4 4.9 4 5.2l12.9 1.8c2.7.4 5.2-1.4 5.6-4.1l5.7-35.7c4.7-.1 9.4-.8 13.9-2l-4.9 30.8c-.4 2.7 1.4 5.2 4.1 5.6l13.1 1.9c2.7.4 5.2-1.4 5.6-4.1l5.7-35.9c11.9-3.2 22.8-9.4 30.9-18.6 12.5-14.2 16.3-34.1 11.3-52.4-4.4-16.1-14.2-27.8-30.6-39Zm-16.8 86.2c-2.9 3.4-6.5 6.2-10.6 8.3l3.5-22c.4-2.7-1.4-5.2-4.1-5.6l-13.1-1.9c-2.7-.4-5.2 1.4-5.6 4.1l-4 25.1c-3.3.5-6.7.6-10 .4l5-31.4c.4-2.7-1.4-5.2-4.1-5.6l-13.1-1.9c-2.7-.4-5.2 1.4-5.6 4.1l-3.7 23.3c-3.9-1.1-7.5-3.1-10.7-6-9.4-8.5-10.7-24.9-6.1-36.6 6.1-15.4 21.7-25 43.4-24.7 8.7.1 21.6 1.6 29.1 7.8 10.4 8.7 16.7 16.3 19.6 27.2 3.7 13.7.8 28.6-7.9 38.9Z" fill="#4EA7F5"/>
  <circle cx="128" cy="128" r="88" stroke="rgba(255,255,255,0.08)" stroke-width="4"/>
</svg>
